<svg width="64" height="15" viewBox="0 0 64 15" fill="none" xmlns="http://www.w3.org/2000/svg">
<g filter="url(#filter0_f_2_416)">
<path d="M33.1688 13.8715C34.9947 13.8715 36.6579 13.0942 37.851 11.8468L36.2601 10.3644C35.4828 11.2502 34.38 11.8106 33.1688 11.8106C30.8729 11.8106 28.9385 9.82206 28.9385 7.43577C28.9385 5.06755 30.8729 3.07897 33.1688 3.07897C34.3619 3.07897 35.4828 3.63939 36.2421 4.52521L37.851 3.02474C36.6579 1.79543 34.9947 1.01808 33.1688 1.01808C29.6255 1.01808 26.6426 3.94671 26.6426 7.43577C26.6426 10.9248 29.6255 13.8715 33.1688 13.8715Z" fill="#1495F0"/>
<path d="M45.108 13.8715C48.3259 13.8715 50.5857 11.5937 50.5857 8.35775V1.23501H48.344V8.28543C48.344 10.3463 47.0062 11.8287 45.108 11.8287C43.2279 11.8287 41.8902 10.3463 41.8902 8.28543V1.23501H39.6304V8.35775C39.6304 11.5937 41.9082 13.8715 45.108 13.8715Z" fill="#1495F0"/>
<path d="M57.7799 13.8535C60.7447 13.8535 62.444 12.2807 62.444 10.0571C62.444 7.79733 60.7085 6.96574 58.1234 6.38725C56.1529 5.9353 55.2309 5.57373 55.2309 4.56137C55.2309 3.69362 56.0805 2.93435 57.3279 2.93435C58.5572 2.93435 59.8046 3.45861 60.8893 4.39866L62.1186 2.73549C60.8712 1.66889 59.3888 1 57.4183 1C54.797 1 52.9531 2.59086 52.9531 4.76022C52.9531 7.09229 54.7428 7.83349 57.3098 8.43006C59.2984 8.90009 60.1842 9.24357 60.1842 10.274C60.1842 11.1598 59.3888 11.9191 57.8522 11.9191C56.2252 11.9191 54.9055 11.2683 53.7666 10.2379L52.4649 11.8468C53.8389 13.1303 55.6467 13.8535 57.7799 13.8535Z" fill="#1495F0"/>
</g>
<g filter="url(#filter1_f_2_416)">
<path d="M10.3463 3.29591V1.23502H1V13.6546H3.25975V8.50237H9.67744V6.44148H3.25975V3.29591H10.3463Z" fill="#1495F0"/>
</g>
<path d="M18.606 13.8715C22.1312 13.8715 25.1141 10.9248 25.1141 7.43577C25.1141 3.94672 22.1312 1.01808 18.606 1.01808C15.0627 1.01808 12.0798 3.94672 12.0798 7.43577C12.0798 10.9248 15.0627 13.8715 18.606 13.8715ZM18.606 11.8106C16.3101 11.8106 14.3757 9.82207 14.3757 7.43577C14.3757 5.06755 16.3101 3.07897 18.606 3.07897C20.8838 3.07897 22.8001 5.06755 22.8001 7.43577C22.8001 9.82207 20.8838 11.8106 18.606 11.8106Z" fill="#1495F0"/>
<path d="M20.3053 7.37752C20.3053 8.3482 19.5184 9.1351 18.5477 9.1351C17.577 9.1351 16.7901 8.3482 16.7901 7.37752C16.7901 6.40683 17.577 5.61993 18.5477 5.61993C19.5184 5.61993 20.3053 6.40683 20.3053 7.37752Z" fill="#1495F0"/>
<defs>
<filter id="filter0_f_2_416" x="25.6426" y="0" width="37.8013" height="14.8715" filterUnits="userSpaceOnUse" color-interpolation-filters="sRGB">
<feFlood flood-opacity="0" result="BackgroundImageFix"/>
<feBlend mode="normal" in="SourceGraphic" in2="BackgroundImageFix" result="shape"/>
<feGaussianBlur stdDeviation="0.5" result="effect1_foregroundBlur_2_416"/>
</filter>
<filter id="filter1_f_2_416" x="0" y="0.235016" width="11.3463" height="14.4196" filterUnits="userSpaceOnUse" color-interpolation-filters="sRGB">
<feFlood flood-opacity="0" result="BackgroundImageFix"/>
<feBlend mode="normal" in="SourceGraphic" in2="BackgroundImageFix" result="shape"/>
<feGaussianBlur stdDeviation="0.5" result="effect1_foregroundBlur_2_416"/>
</filter>
</defs>
</svg>
